<?xml version="1.0" encoding="UTF-8" standalone="no"?>
<!DOCTYPE svg PUBLIC "-//W3C//DTD SVG 1.1//EN"
 "http://www.w3.org/Graphics/SVG/1.1/DTD/svg11.dtd">
<!-- Generated by graphviz version 2.40.1 (20161225.0304)
 -->
<!-- Title: controllers_diagram Pages: 1 -->
<svg width="1416pt" height="1558pt"
 viewBox="0.00 0.00 1416.00 1557.92" xmlns="http://www.w3.org/2000/svg" xmlns:xlink="http://www.w3.org/1999/xlink">
<g id="graph0" class="graph" transform="scale(1 1) rotate(0) translate(4 1553.9158)">
<title>controllers_diagram</title>
<polygon fill="transparent" stroke="transparent" points="-4,4 -4,-1553.9158 1412,-1553.9158 1412,4 -4,4"/>
<!-- _diagram_info -->
<g id="node1" class="node">
<title>_diagram_info</title>
<text text-anchor="start" x="1106" y="-1039.6" font-family="Times,serif" font-size="13.00" fill="#000000">Controllers diagram</text>
<text text-anchor="start" x="1106" y="-1025.6" font-family="Times,serif" font-size="13.00" fill="#000000">Date: Jun 16 2018 &#45; 06:38</text>
<text text-anchor="start" x="1106" y="-1011.6" font-family="Times,serif" font-size="13.00" fill="#000000">Migration version: 20180612180848</text>
<text text-anchor="start" x="1106" y="-997.6" font-family="Times,serif" font-size="13.00" fill="#000000">Generated by RailRoady 1.5.3</text>
<text text-anchor="start" x="1106" y="-983.6" font-family="Times,serif" font-size="13.00" fill="#000000">http://railroady.prestonlee.com</text>
</g>
<!-- AdministrationsController -->
<g id="node2" class="node">
<title>AdministrationsController</title>
<path fill="none" stroke="#000000" d="M12,-1001.9314C12,-1001.9314 148,-1001.9314 148,-1001.9314 154,-1001.9314 160,-1007.9314 160,-1013.9314 160,-1013.9314 160,-1202.9314 160,-1202.9314 160,-1208.9314 154,-1214.9314 148,-1214.9314 148,-1214.9314 12,-1214.9314 12,-1214.9314 6,-1214.9314 0,-1208.9314 0,-1202.9314 0,-1202.9314 0,-1013.9314 0,-1013.9314 0,-1007.9314 6,-1001.9314 12,-1001.9314"/>
<text text-anchor="middle" x="80" y="-1199.7314" font-family="Times,serif" font-size="14.00" fill="#000000">AdministrationsController</text>
<polyline fill="none" stroke="#000000" points="0,-1191.9314 160,-1191.9314 "/>
<text text-anchor="start" x="8" y="-1176.7314" font-family="Times,serif" font-size="14.00" fill="#000000">create</text>
<text text-anchor="start" x="8" y="-1161.7314" font-family="Times,serif" font-size="14.00" fill="#000000">destroy</text>
<text text-anchor="start" x="8" y="-1146.7314" font-family="Times,serif" font-size="14.00" fill="#000000">edit</text>
<text text-anchor="start" x="8" y="-1131.7314" font-family="Times,serif" font-size="14.00" fill="#000000">index</text>
<text text-anchor="start" x="8" y="-1116.7314" font-family="Times,serif" font-size="14.00" fill="#000000">new</text>
<text text-anchor="start" x="8" y="-1101.7314" font-family="Times,serif" font-size="14.00" fill="#000000">show</text>
<text text-anchor="start" x="8" y="-1086.7314" font-family="Times,serif" font-size="14.00" fill="#000000">update</text>
<polyline fill="none" stroke="#000000" points="0,-1078.9314 160,-1078.9314 "/>
<polyline fill="none" stroke="#000000" points="0,-1054.9314 160,-1054.9314 "/>
<text text-anchor="start" x="8" y="-1039.7314" font-family="Times,serif" font-size="14.00" fill="#000000">_layout</text>
<text text-anchor="start" x="8" y="-1024.7314" font-family="Times,serif" font-size="14.00" fill="#000000">administration_params</text>
<text text-anchor="start" x="8" y="-1009.7314" font-family="Times,serif" font-size="14.00" fill="#000000">set_administration</text>
</g>
<!-- ApplicationController -->
<g id="node3" class="node">
<title>ApplicationController</title>
<path fill="none" stroke="#000000" d="M479.8629,-936.4082C479.8629,-936.4082 591.8629,-936.4082 591.8629,-936.4082 597.8629,-936.4082 603.8629,-942.4082 603.8629,-948.4082 603.8629,-948.4082 603.8629,-1018.4082 603.8629,-1018.4082 603.8629,-1024.4082 597.8629,-1030.4082 591.8629,-1030.4082 591.8629,-1030.4082 479.8629,-1030.4082 479.8629,-1030.4082 473.8629,-1030.4082 467.8629,-1024.4082 467.8629,-1018.4082 467.8629,-1018.4082 467.8629,-948.4082 467.8629,-948.4082 467.8629,-942.4082 473.8629,-936.4082 479.8629,-936.4082"/>
<text text-anchor="middle" x="535.8629" y="-1015.2082" font-family="Times,serif" font-size="14.00" fill="#000000">ApplicationController</text>
<polyline fill="none" stroke="#000000" points="467.8629,-1007.4082 603.8629,-1007.4082 "/>
<polyline fill="none" stroke="#000000" points="467.8629,-983.4082 603.8629,-983.4082 "/>
<polyline fill="none" stroke="#000000" points="467.8629,-959.4082 603.8629,-959.4082 "/>
<text text-anchor="start" x="475.8629" y="-944.2082" font-family="Times,serif" font-size="14.00" fill="#000000">_layout</text>
</g>
<!-- ApplicationController&#45;&gt;AdministrationsController -->
<g id="edge1" class="edge">
<title>ApplicationController&#45;&gt;AdministrationsController</title>
<path fill="none" stroke="#000000" d="M467.6156,-1002.1254C385.4019,-1024.673 247.4871,-1062.497 160.2515,-1086.4219"/>
</g>
<!-- ScreamsController -->
<g id="node4" class="node">
<title>ScreamsController</title>
<path fill="none" stroke="#000000" d="M35.345,-675.0511C35.345,-675.0511 156.345,-675.0511 156.345,-675.0511 162.345,-675.0511 168.345,-681.0511 168.345,-687.0511 168.345,-687.0511 168.345,-906.0511 168.345,-906.0511 168.345,-912.0511 162.345,-918.0511 156.345,-918.0511 156.345,-918.0511 35.345,-918.0511 35.345,-918.0511 29.345,-918.0511 23.345,-912.0511 23.345,-906.0511 23.345,-906.0511 23.345,-687.0511 23.345,-687.0511 23.345,-681.0511 29.345,-675.0511 35.345,-675.0511"/>
<text text-anchor="middle" x="95.845" y="-902.8511" font-family="Times,serif" font-size="14.00" fill="#000000">ScreamsController</text>
<polyline fill="none" stroke="#000000" points="23.345,-895.0511 168.345,-895.0511 "/>
<text text-anchor="start" x="31.345" y="-879.8511" font-family="Times,serif" font-size="14.00" fill="#000000">create</text>
<text text-anchor="start" x="31.345" y="-864.8511" font-family="Times,serif" font-size="14.00" fill="#000000">destroy</text>
<text text-anchor="start" x="31.345" y="-849.8511" font-family="Times,serif" font-size="14.00" fill="#000000">edit</text>
<text text-anchor="start" x="31.345" y="-834.8511" font-family="Times,serif" font-size="14.00" fill="#000000">index</text>
<text text-anchor="start" x="31.345" y="-819.8511" font-family="Times,serif" font-size="14.00" fill="#000000">new</text>
<text text-anchor="start" x="31.345" y="-804.8511" font-family="Times,serif" font-size="14.00" fill="#000000">show</text>
<text text-anchor="start" x="31.345" y="-789.8511" font-family="Times,serif" font-size="14.00" fill="#000000">update</text>
<polyline fill="none" stroke="#000000" points="23.345,-782.0511 168.345,-782.0511 "/>
<polyline fill="none" stroke="#000000" points="23.345,-758.0511 168.345,-758.0511 "/>
<text text-anchor="start" x="31.345" y="-742.8511" font-family="Times,serif" font-size="14.00" fill="#000000">_layout</text>
<text text-anchor="start" x="31.345" y="-727.8511" font-family="Times,serif" font-size="14.00" fill="#000000">is_mobile?</text>
<text text-anchor="start" x="31.345" y="-712.8511" font-family="Times,serif" font-size="14.00" fill="#000000">scream_params</text>
<text text-anchor="start" x="31.345" y="-697.8511" font-family="Times,serif" font-size="14.00" fill="#000000">scream_update_params</text>
<text text-anchor="start" x="31.345" y="-682.8511" font-family="Times,serif" font-size="14.00" fill="#000000">set_scream</text>
</g>
<!-- ApplicationController&#45;&gt;ScreamsController -->
<g id="edge2" class="edge">
<title>ApplicationController&#45;&gt;ScreamsController</title>
<path fill="none" stroke="#000000" d="M467.5929,-954.4168C386.4851,-919.9737 251.7328,-862.7501 168.6747,-827.4788"/>
</g>
<!-- SolversController -->
<g id="node5" class="node">
<title>SolversController</title>
<path fill="none" stroke="#000000" d="M592.713,-1336.4158C592.713,-1336.4158 681.713,-1336.4158 681.713,-1336.4158 687.713,-1336.4158 693.713,-1342.4158 693.713,-1348.4158 693.713,-1348.4158 693.713,-1537.4158 693.713,-1537.4158 693.713,-1543.4158 687.713,-1549.4158 681.713,-1549.4158 681.713,-1549.4158 592.713,-1549.4158 592.713,-1549.4158 586.713,-1549.4158 580.713,-1543.4158 580.713,-1537.4158 580.713,-1537.4158 580.713,-1348.4158 580.713,-1348.4158 580.713,-1342.4158 586.713,-1336.4158 592.713,-1336.4158"/>
<text text-anchor="middle" x="637.213" y="-1534.2158" font-family="Times,serif" font-size="14.00" fill="#000000">SolversController</text>
<polyline fill="none" stroke="#000000" points="580.713,-1526.4158 693.713,-1526.4158 "/>
<text text-anchor="start" x="588.713" y="-1511.2158" font-family="Times,serif" font-size="14.00" fill="#000000">create</text>
<text text-anchor="start" x="588.713" y="-1496.2158" font-family="Times,serif" font-size="14.00" fill="#000000">destroy</text>
<text text-anchor="start" x="588.713" y="-1481.2158" font-family="Times,serif" font-size="14.00" fill="#000000">edit</text>
<text text-anchor="start" x="588.713" y="-1466.2158" font-family="Times,serif" font-size="14.00" fill="#000000">index</text>
<text text-anchor="start" x="588.713" y="-1451.2158" font-family="Times,serif" font-size="14.00" fill="#000000">new</text>
<text text-anchor="start" x="588.713" y="-1436.2158" font-family="Times,serif" font-size="14.00" fill="#000000">show</text>
<text text-anchor="start" x="588.713" y="-1421.2158" font-family="Times,serif" font-size="14.00" fill="#000000">update</text>
<polyline fill="none" stroke="#000000" points="580.713,-1413.4158 693.713,-1413.4158 "/>
<polyline fill="none" stroke="#000000" points="580.713,-1389.4158 693.713,-1389.4158 "/>
<text text-anchor="start" x="588.713" y="-1374.2158" font-family="Times,serif" font-size="14.00" fill="#000000">_layout</text>
<text text-anchor="start" x="588.713" y="-1359.2158" font-family="Times,serif" font-size="14.00" fill="#000000">set_solver</text>
<text text-anchor="start" x="588.713" y="-1344.2158" font-family="Times,serif" font-size="14.00" fill="#000000">solver_params</text>
</g>
<!-- ApplicationController&#45;&gt;SolversController -->
<g id="edge3" class="edge">
<title>ApplicationController&#45;&gt;SolversController</title>
<path fill="none" stroke="#000000" d="M546.2328,-1030.4241C561.9987,-1101.9042 592.4119,-1239.7935 613.7191,-1336.3976"/>
</g>
<!-- StatsController -->
<g id="node6" class="node">
<title>StatsController</title>
<path fill="none" stroke="#000000" d="M871.5482,-1234.4726C871.5482,-1234.4726 945.5482,-1234.4726 945.5482,-1234.4726 951.5482,-1234.4726 957.5482,-1240.4726 957.5482,-1246.4726 957.5482,-1246.4726 957.5482,-1315.4726 957.5482,-1315.4726 957.5482,-1321.4726 951.5482,-1327.4726 945.5482,-1327.4726 945.5482,-1327.4726 871.5482,-1327.4726 871.5482,-1327.4726 865.5482,-1327.4726 859.5482,-1321.4726 859.5482,-1315.4726 859.5482,-1315.4726 859.5482,-1246.4726 859.5482,-1246.4726 859.5482,-1240.4726 865.5482,-1234.4726 871.5482,-1234.4726"/>
<text text-anchor="middle" x="908.5482" y="-1312.2726" font-family="Times,serif" font-size="14.00" fill="#000000">StatsController</text>
<polyline fill="none" stroke="#000000" points="859.5482,-1304.4726 957.5482,-1304.4726 "/>
<text text-anchor="start" x="867.5482" y="-1289.2726" font-family="Times,serif" font-size="14.00" fill="#000000">index</text>
<polyline fill="none" stroke="#000000" points="859.5482,-1281.4726 957.5482,-1281.4726 "/>
<polyline fill="none" stroke="#000000" points="859.5482,-1257.4726 957.5482,-1257.4726 "/>
<text text-anchor="start" x="867.5482" y="-1242.2726" font-family="Times,serif" font-size="14.00" fill="#000000">_layout</text>
</g>
<!-- ApplicationController&#45;&gt;StatsController -->
<g id="edge4" class="edge">
<title>ApplicationController&#45;&gt;StatsController</title>
<path fill="none" stroke="#000000" d="M594.916,-1030.5582C667.9844,-1088.8984 791.0705,-1187.1745 859.2929,-1241.6455"/>
</g>
<!-- WelcomeController -->
<g id="node7" class="node">
<title>WelcomeController</title>
<path fill="none" stroke="#000000" d="M247.7475,-1328.0453C247.7475,-1328.0453 348.7475,-1328.0453 348.7475,-1328.0453 354.7475,-1328.0453 360.7475,-1334.0453 360.7475,-1340.0453 360.7475,-1340.0453 360.7475,-1409.0453 360.7475,-1409.0453 360.7475,-1415.0453 354.7475,-1421.0453 348.7475,-1421.0453 348.7475,-1421.0453 247.7475,-1421.0453 247.7475,-1421.0453 241.7475,-1421.0453 235.7475,-1415.0453 235.7475,-1409.0453 235.7475,-1409.0453 235.7475,-1340.0453 235.7475,-1340.0453 235.7475,-1334.0453 241.7475,-1328.0453 247.7475,-1328.0453"/>
<text text-anchor="middle" x="298.2475" y="-1405.8453" font-family="Times,serif" font-size="14.00" fill="#000000">WelcomeController</text>
<polyline fill="none" stroke="#000000" points="235.7475,-1398.0453 360.7475,-1398.0453 "/>
<text text-anchor="start" x="243.7475" y="-1382.8453" font-family="Times,serif" font-size="14.00" fill="#000000">welcome</text>
<polyline fill="none" stroke="#000000" points="235.7475,-1375.0453 360.7475,-1375.0453 "/>
<polyline fill="none" stroke="#000000" points="235.7475,-1351.0453 360.7475,-1351.0453 "/>
<text text-anchor="start" x="243.7475" y="-1335.8453" font-family="Times,serif" font-size="14.00" fill="#000000">_layout</text>
</g>
<!-- ApplicationController&#45;&gt;WelcomeController -->
<g id="edge5" class="edge">
<title>ApplicationController&#45;&gt;WelcomeController</title>
<path fill="none" stroke="#000000" d="M507.2009,-1030.5885C461.4067,-1105.97 372.2655,-1252.7047 326.6412,-1327.8065"/>
</g>
<!-- DeviseController -->
<g id="node13" class="node">
<title>DeviseController</title>
<path fill="none" stroke="#000000" d="M717.3209,-341.0647C717.3209,-341.0647 884.3209,-341.0647 884.3209,-341.0647 890.3209,-341.0647 896.3209,-347.0647 896.3209,-353.0647 896.3209,-353.0647 896.3209,-721.0647 896.3209,-721.0647 896.3209,-727.0647 890.3209,-733.0647 884.3209,-733.0647 884.3209,-733.0647 717.3209,-733.0647 717.3209,-733.0647 711.3209,-733.0647 705.3209,-727.0647 705.3209,-721.0647 705.3209,-721.0647 705.3209,-353.0647 705.3209,-353.0647 705.3209,-347.0647 711.3209,-341.0647 717.3209,-341.0647"/>
<text text-anchor="middle" x="800.8209" y="-717.8647" font-family="Times,serif" font-size="14.00" fill="#000000">DeviseController</text>
<polyline fill="none" stroke="#000000" points="705.3209,-710.0647 896.3209,-710.0647 "/>
<text text-anchor="start" x="713.3209" y="-694.8647" font-family="Times,serif" font-size="14.00" fill="#000000">_prefixes</text>
<polyline fill="none" stroke="#000000" points="705.3209,-687.0647 896.3209,-687.0647 "/>
<text text-anchor="start" x="713.3209" y="-671.8647" font-family="Times,serif" font-size="14.00" fill="#000000">assert_is_devise_resource!</text>
<text text-anchor="start" x="713.3209" y="-656.8647" font-family="Times,serif" font-size="14.00" fill="#000000">clean_up_passwords</text>
<text text-anchor="start" x="713.3209" y="-641.8647" font-family="Times,serif" font-size="14.00" fill="#000000">devise_i18n_options</text>
<text text-anchor="start" x="713.3209" y="-626.8647" font-family="Times,serif" font-size="14.00" fill="#000000">devise_mapping</text>
<text text-anchor="start" x="713.3209" y="-611.8647" font-family="Times,serif" font-size="14.00" fill="#000000">find_message</text>
<text text-anchor="start" x="713.3209" y="-596.8647" font-family="Times,serif" font-size="14.00" fill="#000000">navigational_formats</text>
<text text-anchor="start" x="713.3209" y="-581.8647" font-family="Times,serif" font-size="14.00" fill="#000000">require_no_authentication</text>
<text text-anchor="start" x="713.3209" y="-566.8647" font-family="Times,serif" font-size="14.00" fill="#000000">resource</text>
<text text-anchor="start" x="713.3209" y="-551.8647" font-family="Times,serif" font-size="14.00" fill="#000000">resource=</text>
<text text-anchor="start" x="713.3209" y="-536.8647" font-family="Times,serif" font-size="14.00" fill="#000000">resource_class</text>
<text text-anchor="start" x="713.3209" y="-521.8647" font-family="Times,serif" font-size="14.00" fill="#000000">resource_name</text>
<text text-anchor="start" x="713.3209" y="-506.8647" font-family="Times,serif" font-size="14.00" fill="#000000">resource_params</text>
<text text-anchor="start" x="713.3209" y="-491.8647" font-family="Times,serif" font-size="14.00" fill="#000000">respond_with_navigational</text>
<text text-anchor="start" x="713.3209" y="-476.8647" font-family="Times,serif" font-size="14.00" fill="#000000">scope_name</text>
<text text-anchor="start" x="713.3209" y="-461.8647" font-family="Times,serif" font-size="14.00" fill="#000000">set_flash_message</text>
<text text-anchor="start" x="713.3209" y="-446.8647" font-family="Times,serif" font-size="14.00" fill="#000000">set_flash_message!</text>
<text text-anchor="start" x="713.3209" y="-431.8647" font-family="Times,serif" font-size="14.00" fill="#000000">set_minimum_password_length</text>
<text text-anchor="start" x="713.3209" y="-416.8647" font-family="Times,serif" font-size="14.00" fill="#000000">signed_in_resource</text>
<text text-anchor="start" x="713.3209" y="-401.8647" font-family="Times,serif" font-size="14.00" fill="#000000">successfully_sent?</text>
<text text-anchor="start" x="713.3209" y="-386.8647" font-family="Times,serif" font-size="14.00" fill="#000000">translation_scope</text>
<text text-anchor="start" x="713.3209" y="-371.8647" font-family="Times,serif" font-size="14.00" fill="#000000">unknown_action!</text>
<polyline fill="none" stroke="#000000" points="705.3209,-364.0647 896.3209,-364.0647 "/>
<text text-anchor="start" x="713.3209" y="-348.8647" font-family="Times,serif" font-size="14.00" fill="#000000">_layout</text>
</g>
<!-- ApplicationController&#45;&gt;DeviseController -->
<g id="edge6" class="edge">
<title>ApplicationController&#45;&gt;DeviseController</title>
<path fill="none" stroke="#000000" d="M563.9672,-936.0642C597.4629,-879.6379 655.2017,-782.3721 705.2845,-698.0035"/>
</g>
<!-- ActiveStorage::DirectUploadsController -->
<g id="node8" class="node">
<title>ActiveStorage::DirectUploadsController</title>
<path fill="none" stroke="#000000" d="M744,-915.5C744,-915.5 956,-915.5 956,-915.5 962,-915.5 968,-921.5 968,-927.5 968,-927.5 968,-1026.5 968,-1026.5 968,-1032.5 962,-1038.5 956,-1038.5 956,-1038.5 744,-1038.5 744,-1038.5 738,-1038.5 732,-1032.5 732,-1026.5 732,-1026.5 732,-927.5 732,-927.5 732,-921.5 738,-915.5 744,-915.5"/>
<text text-anchor="middle" x="850" y="-1023.3" font-family="Times,serif" font-size="14.00" fill="#000000">ActiveStorage::DirectUploadsController</text>
<polyline fill="none" stroke="#000000" points="732,-1015.5 968,-1015.5 "/>
<text text-anchor="start" x="740" y="-1000.3" font-family="Times,serif" font-size="14.00" fill="#000000">create</text>
<polyline fill="none" stroke="#000000" points="732,-992.5 968,-992.5 "/>
<polyline fill="none" stroke="#000000" points="732,-968.5 968,-968.5 "/>
<text text-anchor="start" x="740" y="-953.3" font-family="Times,serif" font-size="14.00" fill="#000000">_layout</text>
<text text-anchor="start" x="740" y="-938.3" font-family="Times,serif" font-size="14.00" fill="#000000">blob_args</text>
<text text-anchor="start" x="740" y="-923.3" font-family="Times,serif" font-size="14.00" fill="#000000">direct_upload_json</text>
</g>
<!-- ActiveStorage::DiskController -->
<g id="node9" class="node">
<title>ActiveStorage::DiskController</title>
<path fill="none" stroke="#000000" d="M439,-671.5C439,-671.5 597,-671.5 597,-671.5 603,-671.5 609,-677.5 609,-683.5 609,-683.5 609,-827.5 609,-827.5 609,-833.5 603,-839.5 597,-839.5 597,-839.5 439,-839.5 439,-839.5 433,-839.5 427,-833.5 427,-827.5 427,-827.5 427,-683.5 427,-683.5 427,-677.5 433,-671.5 439,-671.5"/>
<text text-anchor="middle" x="518" y="-824.3" font-family="Times,serif" font-size="14.00" fill="#000000">ActiveStorage::DiskController</text>
<polyline fill="none" stroke="#000000" points="427,-816.5 609,-816.5 "/>
<text text-anchor="start" x="435" y="-801.3" font-family="Times,serif" font-size="14.00" fill="#000000">show</text>
<text text-anchor="start" x="435" y="-786.3" font-family="Times,serif" font-size="14.00" fill="#000000">update</text>
<polyline fill="none" stroke="#000000" points="427,-778.5 609,-778.5 "/>
<polyline fill="none" stroke="#000000" points="427,-754.5 609,-754.5 "/>
<text text-anchor="start" x="435" y="-739.3" font-family="Times,serif" font-size="14.00" fill="#000000">_layout</text>
<text text-anchor="start" x="435" y="-724.3" font-family="Times,serif" font-size="14.00" fill="#000000">acceptable_content?</text>
<text text-anchor="start" x="435" y="-709.3" font-family="Times,serif" font-size="14.00" fill="#000000">decode_verified_key</text>
<text text-anchor="start" x="435" y="-694.3" font-family="Times,serif" font-size="14.00" fill="#000000">decode_verified_token</text>
<text text-anchor="start" x="435" y="-679.3" font-family="Times,serif" font-size="14.00" fill="#000000">disk_service</text>
</g>
<!-- ActiveStorage::BlobsController -->
<g id="node10" class="node">
<title>ActiveStorage::BlobsController</title>
<path fill="none" stroke="#000000" d="M1232,-1342.5C1232,-1342.5 1396,-1342.5 1396,-1342.5 1402,-1342.5 1408,-1348.5 1408,-1354.5 1408,-1354.5 1408,-1423.5 1408,-1423.5 1408,-1429.5 1402,-1435.5 1396,-1435.5 1396,-1435.5 1232,-1435.5 1232,-1435.5 1226,-1435.5 1220,-1429.5 1220,-1423.5 1220,-1423.5 1220,-1354.5 1220,-1354.5 1220,-1348.5 1226,-1342.5 1232,-1342.5"/>
<text text-anchor="middle" x="1314" y="-1420.3" font-family="Times,serif" font-size="14.00" fill="#000000">ActiveStorage::BlobsController</text>
<polyline fill="none" stroke="#000000" points="1220,-1412.5 1408,-1412.5 "/>
<text text-anchor="start" x="1228" y="-1397.3" font-family="Times,serif" font-size="14.00" fill="#000000">show</text>
<polyline fill="none" stroke="#000000" points="1220,-1389.5 1408,-1389.5 "/>
<polyline fill="none" stroke="#000000" points="1220,-1365.5 1408,-1365.5 "/>
<text text-anchor="start" x="1228" y="-1350.3" font-family="Times,serif" font-size="14.00" fill="#000000">_layout</text>
</g>
<!-- ActiveStorage::BaseController -->
<g id="node11" class="node">
<title>ActiveStorage::BaseController</title>
<path fill="none" stroke="#000000" d="M927,-1403.5C927,-1403.5 1086,-1403.5 1086,-1403.5 1092,-1403.5 1098,-1409.5 1098,-1415.5 1098,-1415.5 1098,-1485.5 1098,-1485.5 1098,-1491.5 1092,-1497.5 1086,-1497.5 1086,-1497.5 927,-1497.5 927,-1497.5 921,-1497.5 915,-1491.5 915,-1485.5 915,-1485.5 915,-1415.5 915,-1415.5 915,-1409.5 921,-1403.5 927,-1403.5"/>
<text text-anchor="middle" x="1006.5" y="-1482.3" font-family="Times,serif" font-size="14.00" fill="#000000">ActiveStorage::BaseController</text>
<polyline fill="none" stroke="#000000" points="915,-1474.5 1098,-1474.5 "/>
<polyline fill="none" stroke="#000000" points="915,-1450.5 1098,-1450.5 "/>
<polyline fill="none" stroke="#000000" points="915,-1426.5 1098,-1426.5 "/>
<text text-anchor="start" x="923" y="-1411.3" font-family="Times,serif" font-size="14.00" fill="#000000">_layout</text>
</g>
<!-- ActiveStorage::RepresentationsController -->
<g id="node12" class="node">
<title>ActiveStorage::RepresentationsController</title>
<path fill="none" stroke="#000000" d="M1049,-1159.5C1049,-1159.5 1268,-1159.5 1268,-1159.5 1274,-1159.5 1280,-1165.5 1280,-1171.5 1280,-1171.5 1280,-1240.5 1280,-1240.5 1280,-1246.5 1274,-1252.5 1268,-1252.5 1268,-1252.5 1049,-1252.5 1049,-1252.5 1043,-1252.5 1037,-1246.5 1037,-1240.5 1037,-1240.5 1037,-1171.5 1037,-1171.5 1037,-1165.5 1043,-1159.5 1049,-1159.5"/>
<text text-anchor="middle" x="1158.5" y="-1237.3" font-family="Times,serif" font-size="14.00" fill="#000000">ActiveStorage::RepresentationsController</text>
<polyline fill="none" stroke="#000000" points="1037,-1229.5 1280,-1229.5 "/>
<text text-anchor="start" x="1045" y="-1214.3" font-family="Times,serif" font-size="14.00" fill="#000000">show</text>
<polyline fill="none" stroke="#000000" points="1037,-1206.5 1280,-1206.5 "/>
<polyline fill="none" stroke="#000000" points="1037,-1182.5 1280,-1182.5 "/>
<text text-anchor="start" x="1045" y="-1167.3" font-family="Times,serif" font-size="14.00" fill="#000000">_layout</text>
</g>
<!-- Devise::RegistrationsController -->
<g id="node14" class="node">
<title>Devise::RegistrationsController</title>
<path fill="none" stroke="#000000" d="M1196.216,-366.6689C1196.216,-366.6689 1365.216,-366.6689 1365.216,-366.6689 1371.216,-366.6689 1377.216,-372.6689 1377.216,-378.6689 1377.216,-378.6689 1377.216,-671.6689 1377.216,-671.6689 1377.216,-677.6689 1371.216,-683.6689 1365.216,-683.6689 1365.216,-683.6689 1196.216,-683.6689 1196.216,-683.6689 1190.216,-683.6689 1184.216,-677.6689 1184.216,-671.6689 1184.216,-671.6689 1184.216,-378.6689 1184.216,-378.6689 1184.216,-372.6689 1190.216,-366.6689 1196.216,-366.6689"/>
<text text-anchor="middle" x="1280.716" y="-668.4689" font-family="Times,serif" font-size="14.00" fill="#000000">Devise::RegistrationsController</text>
<polyline fill="none" stroke="#000000" points="1184.216,-660.6689 1377.216,-660.6689 "/>
<text text-anchor="start" x="1192.216" y="-645.4689" font-family="Times,serif" font-size="14.00" fill="#000000">cancel</text>
<text text-anchor="start" x="1192.216" y="-630.4689" font-family="Times,serif" font-size="14.00" fill="#000000">create</text>
<text text-anchor="start" x="1192.216" y="-615.4689" font-family="Times,serif" font-size="14.00" fill="#000000">destroy</text>
<text text-anchor="start" x="1192.216" y="-600.4689" font-family="Times,serif" font-size="14.00" fill="#000000">edit</text>
<text text-anchor="start" x="1192.216" y="-585.4689" font-family="Times,serif" font-size="14.00" fill="#000000">new</text>
<text text-anchor="start" x="1192.216" y="-570.4689" font-family="Times,serif" font-size="14.00" fill="#000000">update</text>
<polyline fill="none" stroke="#000000" points="1184.216,-562.6689 1377.216,-562.6689 "/>
<text text-anchor="start" x="1192.216" y="-547.4689" font-family="Times,serif" font-size="14.00" fill="#000000">account_update_params</text>
<text text-anchor="start" x="1192.216" y="-532.4689" font-family="Times,serif" font-size="14.00" fill="#000000">after_inactive_sign_up_path_for</text>
<text text-anchor="start" x="1192.216" y="-517.4689" font-family="Times,serif" font-size="14.00" fill="#000000">after_sign_up_path_for</text>
<text text-anchor="start" x="1192.216" y="-502.4689" font-family="Times,serif" font-size="14.00" fill="#000000">after_update_path_for</text>
<text text-anchor="start" x="1192.216" y="-487.4689" font-family="Times,serif" font-size="14.00" fill="#000000">authenticate_scope!</text>
<text text-anchor="start" x="1192.216" y="-472.4689" font-family="Times,serif" font-size="14.00" fill="#000000">build_resource</text>
<text text-anchor="start" x="1192.216" y="-457.4689" font-family="Times,serif" font-size="14.00" fill="#000000">sign_up</text>
<text text-anchor="start" x="1192.216" y="-442.4689" font-family="Times,serif" font-size="14.00" fill="#000000">sign_up_params</text>
<text text-anchor="start" x="1192.216" y="-427.4689" font-family="Times,serif" font-size="14.00" fill="#000000">translation_scope</text>
<text text-anchor="start" x="1192.216" y="-412.4689" font-family="Times,serif" font-size="14.00" fill="#000000">update_needs_confirmation?</text>
<text text-anchor="start" x="1192.216" y="-397.4689" font-family="Times,serif" font-size="14.00" fill="#000000">update_resource</text>
<polyline fill="none" stroke="#000000" points="1184.216,-389.6689 1377.216,-389.6689 "/>
<text text-anchor="start" x="1192.216" y="-374.4689" font-family="Times,serif" font-size="14.00" fill="#000000">_layout</text>
</g>
<!-- DeviseController&#45;&gt;Devise::RegistrationsController -->
<g id="edge7" class="edge">
<title>DeviseController&#45;&gt;Devise::RegistrationsController</title>
<path fill="none" stroke="#000000" d="M896.4938,-534.6932C979.8917,-532.6258 1100.2747,-529.6417 1183.9838,-527.5667"/>
</g>
<!-- Devise::ConfirmationsController -->
<g id="node15" class="node">
<title>Devise::ConfirmationsController</title>
<path fill="none" stroke="#000000" d="M254.2908,-272.6514C254.2908,-272.6514 530.2908,-272.6514 530.2908,-272.6514 536.2908,-272.6514 542.2908,-278.6514 542.2908,-284.6514 542.2908,-284.6514 542.2908,-412.6514 542.2908,-412.6514 542.2908,-418.6514 536.2908,-424.6514 530.2908,-424.6514 530.2908,-424.6514 254.2908,-424.6514 254.2908,-424.6514 248.2908,-424.6514 242.2908,-418.6514 242.2908,-412.6514 242.2908,-412.6514 242.2908,-284.6514 242.2908,-284.6514 242.2908,-278.6514 248.2908,-272.6514 254.2908,-272.6514"/>
<text text-anchor="middle" x="392.2908" y="-409.4514" font-family="Times,serif" font-size="14.00" fill="#000000">Devise::ConfirmationsController</text>
<polyline fill="none" stroke="#000000" points="242.2908,-401.6514 542.2908,-401.6514 "/>
<text text-anchor="start" x="250.2908" y="-386.4514" font-family="Times,serif" font-size="14.00" fill="#000000">create</text>
<text text-anchor="start" x="250.2908" y="-371.4514" font-family="Times,serif" font-size="14.00" fill="#000000">new</text>
<text text-anchor="start" x="250.2908" y="-356.4514" font-family="Times,serif" font-size="14.00" fill="#000000">show</text>
<polyline fill="none" stroke="#000000" points="242.2908,-348.6514 542.2908,-348.6514 "/>
<text text-anchor="start" x="250.2908" y="-333.4514" font-family="Times,serif" font-size="14.00" fill="#000000">after_confirmation_path_for</text>
<text text-anchor="start" x="250.2908" y="-318.4514" font-family="Times,serif" font-size="14.00" fill="#000000">after_resending_confirmation_instructions_path_for</text>
<text text-anchor="start" x="250.2908" y="-303.4514" font-family="Times,serif" font-size="14.00" fill="#000000">translation_scope</text>
<polyline fill="none" stroke="#000000" points="242.2908,-295.6514 542.2908,-295.6514 "/>
<text text-anchor="start" x="250.2908" y="-280.4514" font-family="Times,serif" font-size="14.00" fill="#000000">_layout</text>
</g>
<!-- DeviseController&#45;&gt;Devise::ConfirmationsController -->
<g id="edge8" class="edge">
<title>DeviseController&#45;&gt;Devise::ConfirmationsController</title>
<path fill="none" stroke="#000000" d="M705.2966,-493.0091C656.8382,-470.6602 596.8551,-442.9961 542.4051,-417.8839"/>
</g>
<!-- Devise::UnlocksController -->
<g id="node16" class="node">
<title>Devise::UnlocksController</title>
<path fill="none" stroke="#000000" d="M757.0664,-.5C757.0664,-.5 989.0664,-.5 989.0664,-.5 995.0664,-.5 1001.0664,-6.5 1001.0664,-12.5 1001.0664,-12.5 1001.0664,-140.5 1001.0664,-140.5 1001.0664,-146.5 995.0664,-152.5 989.0664,-152.5 989.0664,-152.5 757.0664,-152.5 757.0664,-152.5 751.0664,-152.5 745.0664,-146.5 745.0664,-140.5 745.0664,-140.5 745.0664,-12.5 745.0664,-12.5 745.0664,-6.5 751.0664,-.5 757.0664,-.5"/>
<text text-anchor="middle" x="873.0664" y="-137.3" font-family="Times,serif" font-size="14.00" fill="#000000">Devise::UnlocksController</text>
<polyline fill="none" stroke="#000000" points="745.0664,-129.5 1001.0664,-129.5 "/>
<text text-anchor="start" x="753.0664" y="-114.3" font-family="Times,serif" font-size="14.00" fill="#000000">create</text>
<text text-anchor="start" x="753.0664" y="-99.3" font-family="Times,serif" font-size="14.00" fill="#000000">new</text>
<text text-anchor="start" x="753.0664" y="-84.3" font-family="Times,serif" font-size="14.00" fill="#000000">show</text>
<polyline fill="none" stroke="#000000" points="745.0664,-76.5 1001.0664,-76.5 "/>
<text text-anchor="start" x="753.0664" y="-61.3" font-family="Times,serif" font-size="14.00" fill="#000000">after_sending_unlock_instructions_path_for</text>
<text text-anchor="start" x="753.0664" y="-46.3" font-family="Times,serif" font-size="14.00" fill="#000000">after_unlock_path_for</text>
<text text-anchor="start" x="753.0664" y="-31.3" font-family="Times,serif" font-size="14.00" fill="#000000">translation_scope</text>
<polyline fill="none" stroke="#000000" points="745.0664,-23.5 1001.0664,-23.5 "/>
<text text-anchor="start" x="753.0664" y="-8.3" font-family="Times,serif" font-size="14.00" fill="#000000">_layout</text>
</g>
<!-- DeviseController&#45;&gt;Devise::UnlocksController -->
<g id="edge9" class="edge">
<title>DeviseController&#45;&gt;Devise::UnlocksController</title>
<path fill="none" stroke="#000000" d="M831.6166,-340.742C842.0364,-274.3161 853.0607,-204.0358 861.1186,-152.6671"/>
</g>
<!-- Devise::OmniauthCallbacksController -->
<g id="node17" class="node">
<title>Devise::OmniauthCallbacksController</title>
<path fill="none" stroke="#000000" d="M1053.44,-158.3504C1053.44,-158.3504 1254.44,-158.3504 1254.44,-158.3504 1260.44,-158.3504 1266.44,-164.3504 1266.44,-170.3504 1266.44,-170.3504 1266.44,-298.3504 1266.44,-298.3504 1266.44,-304.3504 1260.44,-310.3504 1254.44,-310.3504 1254.44,-310.3504 1053.44,-310.3504 1053.44,-310.3504 1047.44,-310.3504 1041.44,-304.3504 1041.44,-298.3504 1041.44,-298.3504 1041.44,-170.3504 1041.44,-170.3504 1041.44,-164.3504 1047.44,-158.3504 1053.44,-158.3504"/>
<text text-anchor="middle" x="1153.94" y="-295.1504" font-family="Times,serif" font-size="14.00" fill="#000000">Devise::OmniauthCallbacksController</text>
<polyline fill="none" stroke="#000000" points="1041.44,-287.3504 1266.44,-287.3504 "/>
<text text-anchor="start" x="1049.44" y="-272.1504" font-family="Times,serif" font-size="14.00" fill="#000000">failure</text>
<text text-anchor="start" x="1049.44" y="-257.1504" font-family="Times,serif" font-size="14.00" fill="#000000">passthru</text>
<polyline fill="none" stroke="#000000" points="1041.44,-249.3504 1266.44,-249.3504 "/>
<text text-anchor="start" x="1049.44" y="-234.1504" font-family="Times,serif" font-size="14.00" fill="#000000">after_omniauth_failure_path_for</text>
<text text-anchor="start" x="1049.44" y="-219.1504" font-family="Times,serif" font-size="14.00" fill="#000000">failed_strategy</text>
<text text-anchor="start" x="1049.44" y="-204.1504" font-family="Times,serif" font-size="14.00" fill="#000000">failure_message</text>
<text text-anchor="start" x="1049.44" y="-189.1504" font-family="Times,serif" font-size="14.00" fill="#000000">translation_scope</text>
<polyline fill="none" stroke="#000000" points="1041.44,-181.3504 1266.44,-181.3504 "/>
<text text-anchor="start" x="1049.44" y="-166.1504" font-family="Times,serif" font-size="14.00" fill="#000000">_layout</text>
</g>
<!-- DeviseController&#45;&gt;Devise::OmniauthCallbacksController -->
<g id="edge10" class="edge">
<title>DeviseController&#45;&gt;Devise::OmniauthCallbacksController</title>
<path fill="none" stroke="#000000" d="M896.38,-455.1459C948.9752,-410.0582 1013.8138,-354.4747 1065.2774,-310.3572"/>
</g>
<!-- Devise::PasswordsController -->
<g id="node18" class="node">
<title>Devise::PasswordsController</title>
<path fill="none" stroke="#000000" d="M419.9252,-15.3733C419.9252,-15.3733 697.9252,-15.3733 697.9252,-15.3733 703.9252,-15.3733 709.9252,-21.3733 709.9252,-27.3733 709.9252,-27.3733 709.9252,-200.3733 709.9252,-200.3733 709.9252,-206.3733 703.9252,-212.3733 697.9252,-212.3733 697.9252,-212.3733 419.9252,-212.3733 419.9252,-212.3733 413.9252,-212.3733 407.9252,-206.3733 407.9252,-200.3733 407.9252,-200.3733 407.9252,-27.3733 407.9252,-27.3733 407.9252,-21.3733 413.9252,-15.3733 419.9252,-15.3733"/>
<text text-anchor="middle" x="558.9252" y="-197.1733" font-family="Times,serif" font-size="14.00" fill="#000000">Devise::PasswordsController</text>
<polyline fill="none" stroke="#000000" points="407.9252,-189.3733 709.9252,-189.3733 "/>
<text text-anchor="start" x="415.9252" y="-174.1733" font-family="Times,serif" font-size="14.00" fill="#000000">create</text>
<text text-anchor="start" x="415.9252" y="-159.1733" font-family="Times,serif" font-size="14.00" fill="#000000">edit</text>
<text text-anchor="start" x="415.9252" y="-144.1733" font-family="Times,serif" font-size="14.00" fill="#000000">new</text>
<text text-anchor="start" x="415.9252" y="-129.1733" font-family="Times,serif" font-size="14.00" fill="#000000">update</text>
<polyline fill="none" stroke="#000000" points="407.9252,-121.3733 709.9252,-121.3733 "/>
<text text-anchor="start" x="415.9252" y="-106.1733" font-family="Times,serif" font-size="14.00" fill="#000000">after_resetting_password_path_for</text>
<text text-anchor="start" x="415.9252" y="-91.1733" font-family="Times,serif" font-size="14.00" fill="#000000">after_sending_reset_password_instructions_path_for</text>
<text text-anchor="start" x="415.9252" y="-76.1733" font-family="Times,serif" font-size="14.00" fill="#000000">assert_reset_token_passed</text>
<text text-anchor="start" x="415.9252" y="-61.1733" font-family="Times,serif" font-size="14.00" fill="#000000">translation_scope</text>
<text text-anchor="start" x="415.9252" y="-46.1733" font-family="Times,serif" font-size="14.00" fill="#000000">unlockable?</text>
<polyline fill="none" stroke="#000000" points="407.9252,-38.3733 709.9252,-38.3733 "/>
<text text-anchor="start" x="415.9252" y="-23.1733" font-family="Times,serif" font-size="14.00" fill="#000000">_layout</text>
</g>
<!-- DeviseController&#45;&gt;Devise::PasswordsController -->
<g id="edge11" class="edge">
<title>DeviseController&#45;&gt;Devise::PasswordsController</title>
<path fill="none" stroke="#000000" d="M705.2173,-369.8083C674.7778,-316.555 642.0959,-259.3786 615.3599,-212.6047"/>
</g>
<!-- Devise::SessionsController -->
<g id="node19" class="node">
<title>Devise::SessionsController</title>
<path fill="none" stroke="#000000" d="M1105.9402,-692.6962C1105.9402,-692.6962 1245.9402,-692.6962 1245.9402,-692.6962 1251.9402,-692.6962 1257.9402,-698.6962 1257.9402,-704.6962 1257.9402,-704.6962 1257.9402,-892.6962 1257.9402,-892.6962 1257.9402,-898.6962 1251.9402,-904.6962 1245.9402,-904.6962 1245.9402,-904.6962 1105.9402,-904.6962 1105.9402,-904.6962 1099.9402,-904.6962 1093.9402,-898.6962 1093.9402,-892.6962 1093.9402,-892.6962 1093.9402,-704.6962 1093.9402,-704.6962 1093.9402,-698.6962 1099.9402,-692.6962 1105.9402,-692.6962"/>
<text text-anchor="middle" x="1175.9402" y="-889.4962" font-family="Times,serif" font-size="14.00" fill="#000000">Devise::SessionsController</text>
<polyline fill="none" stroke="#000000" points="1093.9402,-881.6962 1257.9402,-881.6962 "/>
<text text-anchor="start" x="1101.9402" y="-866.4962" font-family="Times,serif" font-size="14.00" fill="#000000">create</text>
<text text-anchor="start" x="1101.9402" y="-851.4962" font-family="Times,serif" font-size="14.00" fill="#000000">destroy</text>
<text text-anchor="start" x="1101.9402" y="-836.4962" font-family="Times,serif" font-size="14.00" fill="#000000">new</text>
<polyline fill="none" stroke="#000000" points="1093.9402,-828.6962 1257.9402,-828.6962 "/>
<text text-anchor="start" x="1101.9402" y="-813.4962" font-family="Times,serif" font-size="14.00" fill="#000000">auth_options</text>
<text text-anchor="start" x="1101.9402" y="-798.4962" font-family="Times,serif" font-size="14.00" fill="#000000">serialize_options</text>
<text text-anchor="start" x="1101.9402" y="-783.4962" font-family="Times,serif" font-size="14.00" fill="#000000">sign_in_params</text>
<text text-anchor="start" x="1101.9402" y="-768.4962" font-family="Times,serif" font-size="14.00" fill="#000000">translation_scope</text>
<polyline fill="none" stroke="#000000" points="1093.9402,-760.6962 1257.9402,-760.6962 "/>
<text text-anchor="start" x="1101.9402" y="-745.4962" font-family="Times,serif" font-size="14.00" fill="#000000">_layout</text>
<text text-anchor="start" x="1101.9402" y="-730.4962" font-family="Times,serif" font-size="14.00" fill="#000000">all_signed_out?</text>
<text text-anchor="start" x="1101.9402" y="-715.4962" font-family="Times,serif" font-size="14.00" fill="#000000">respond_to_on_destroy</text>
<text text-anchor="start" x="1101.9402" y="-700.4962" font-family="Times,serif" font-size="14.00" fill="#000000">verify_signed_out_user</text>
</g>
<!-- DeviseController&#45;&gt;Devise::SessionsController -->
<g id="edge12" class="edge">
<title>DeviseController&#45;&gt;Devise::SessionsController</title>
<path fill="none" stroke="#000000" d="M896.4499,-603.7624C957.4459,-646.3047 1035.6751,-700.8667 1093.8488,-741.4405"/>
</g>
</g>
</svg>
