<?xml version="1.0" encoding="UTF-8" standalone="no"?>
<!DOCTYPE svg PUBLIC "-//W3C//DTD SVG 1.1//EN"
 "http://www.w3.org/Graphics/SVG/1.1/DTD/svg11.dtd">
<!-- Generated by graphviz version 2.40.1 (20161225.0304)
 -->
<!-- Title: models_diagram Pages: 1 -->
<svg width="2678pt" height="754pt"
 viewBox="0.00 0.00 2678.00 754.00" xmlns="http://www.w3.org/2000/svg" xmlns:xlink="http://www.w3.org/1999/xlink">
<g id="graph0" class="graph" transform="scale(1 1) rotate(0) translate(4 750)">
<title>models_diagram</title>
<polygon fill="transparent" stroke="transparent" points="-4,4 -4,-750 2674,-750 2674,4 -4,4"/>
<!-- _diagram_info -->
<g id="node1" class="node">
<title>_diagram_info</title>
<text text-anchor="start" x="8" y="-694.6" font-family="Times,serif" font-size="13.00" fill="#000000">Models diagram</text>
<text text-anchor="start" x="8" y="-680.6" font-family="Times,serif" font-size="13.00" fill="#000000">Date: Jun 16 2018 &#45; 06:39</text>
<text text-anchor="start" x="8" y="-666.6" font-family="Times,serif" font-size="13.00" fill="#000000">Migration version: 20180612180848</text>
<text text-anchor="start" x="8" y="-652.6" font-family="Times,serif" font-size="13.00" fill="#000000">Generated by RailRoady 1.5.3</text>
<text text-anchor="start" x="8" y="-638.6" font-family="Times,serif" font-size="13.00" fill="#000000">http://railroady.prestonlee.com</text>
</g>
<!-- Administration -->
<g id="node2" class="node">
<title>Administration</title>
<path fill="none" stroke="#000000" d="M71,-421.5C71,-421.5 193,-421.5 193,-421.5 199,-421.5 205,-427.5 205,-433.5 205,-433.5 205,-545.5 205,-545.5 205,-551.5 199,-557.5 193,-557.5 193,-557.5 71,-557.5 71,-557.5 65,-557.5 59,-551.5 59,-545.5 59,-545.5 59,-433.5 59,-433.5 59,-427.5 65,-421.5 71,-421.5"/>
<text text-anchor="middle" x="132" y="-542.3" font-family="Times,serif" font-size="14.00" fill="#000000">Administration</text>
<polyline fill="none" stroke="#000000" points="59,-534.5 205,-534.5 "/>
<text text-anchor="start" x="67" y="-519.3" font-family="Times,serif" font-size="14.00" fill="#000000">id :integer</text>
<text text-anchor="start" x="67" y="-504.3" font-family="Times,serif" font-size="14.00" fill="#000000">name :varchar</text>
<text text-anchor="start" x="67" y="-489.3" font-family="Times,serif" font-size="14.00" fill="#000000">phone_number :varchar</text>
<text text-anchor="start" x="67" y="-474.3" font-family="Times,serif" font-size="14.00" fill="#000000">city :varchar</text>
<text text-anchor="start" x="67" y="-459.3" font-family="Times,serif" font-size="14.00" fill="#000000">province :varchar</text>
<text text-anchor="start" x="67" y="-444.3" font-family="Times,serif" font-size="14.00" fill="#000000">street :varchar</text>
<text text-anchor="start" x="67" y="-429.3" font-family="Times,serif" font-size="14.00" fill="#000000">user_id :integer</text>
</g>
<!-- Scream -->
<g id="node5" class="node">
<title>Scream</title>
<path fill="none" stroke="#000000" d="M118,-.5C118,-.5 252,-.5 252,-.5 258,-.5 264,-6.5 264,-12.5 264,-12.5 264,-214.5 264,-214.5 264,-220.5 258,-226.5 252,-226.5 252,-226.5 118,-226.5 118,-226.5 112,-226.5 106,-220.5 106,-214.5 106,-214.5 106,-12.5 106,-12.5 106,-6.5 112,-.5 118,-.5"/>
<text text-anchor="middle" x="185" y="-211.3" font-family="Times,serif" font-size="14.00" fill="#000000">Scream</text>
<polyline fill="none" stroke="#000000" points="106,-203.5 264,-203.5 "/>
<text text-anchor="start" x="114" y="-188.3" font-family="Times,serif" font-size="14.00" fill="#000000">id :varchar</text>
<text text-anchor="start" x="114" y="-173.3" font-family="Times,serif" font-size="14.00" fill="#000000">latitude :float</text>
<text text-anchor="start" x="114" y="-158.3" font-family="Times,serif" font-size="14.00" fill="#000000">longitude :float</text>
<text text-anchor="start" x="114" y="-143.3" font-family="Times,serif" font-size="14.00" fill="#000000">address :varchar</text>
<text text-anchor="start" x="114" y="-128.3" font-family="Times,serif" font-size="14.00" fill="#000000">description :varchar</text>
<text text-anchor="start" x="114" y="-113.3" font-family="Times,serif" font-size="14.00" fill="#000000">priority :integer</text>
<text text-anchor="start" x="114" y="-98.3" font-family="Times,serif" font-size="14.00" fill="#000000">screamer_email :varchar</text>
<text text-anchor="start" x="114" y="-83.3" font-family="Times,serif" font-size="14.00" fill="#000000">status :integer</text>
<text text-anchor="start" x="114" y="-68.3" font-family="Times,serif" font-size="14.00" fill="#000000">category_id :integer</text>
<text text-anchor="start" x="114" y="-53.3" font-family="Times,serif" font-size="14.00" fill="#000000">solver_id :integer</text>
<text text-anchor="start" x="114" y="-38.3" font-family="Times,serif" font-size="14.00" fill="#000000">administration_id :integer</text>
<text text-anchor="start" x="114" y="-23.3" font-family="Times,serif" font-size="14.00" fill="#000000">created_at :datetime</text>
<text text-anchor="start" x="114" y="-8.3" font-family="Times,serif" font-size="14.00" fill="#000000">updated_at :datetime</text>
</g>
<!-- Administration&#45;&gt;Scream -->
<g id="edge1" class="edge">
<title>Administration&#45;&gt;Scream</title>
<path fill="none" stroke="#312c4d" d="M135.7311,-413.2311C138.552,-369.1513 143.2959,-312.7436 151,-263 152.332,-254.3998 153.8783,-245.5578 155.5625,-236.6761"/>
<ellipse fill="none" stroke="#312c4d" cx="135.4758" cy="-417.3217" rx="4" ry="4"/>
<polygon fill="#312c4d" stroke="#312c4d" points="155.605,-236.4575 161.9354,-227.5033 156.5618,-231.5499 157.5185,-226.6423 157.5185,-226.6423 157.5185,-226.6423 156.5618,-231.5499 153.1017,-225.7812 155.605,-236.4575 155.605,-236.4575"/>
</g>
<!-- Solver -->
<g id="node6" class="node">
<title>Solver</title>
<path fill="none" stroke="#000000" d="M172,-263.5C172,-263.5 306,-263.5 306,-263.5 312,-263.5 318,-269.5 318,-275.5 318,-275.5 318,-372.5 318,-372.5 318,-378.5 312,-384.5 306,-384.5 306,-384.5 172,-384.5 172,-384.5 166,-384.5 160,-378.5 160,-372.5 160,-372.5 160,-275.5 160,-275.5 160,-269.5 166,-263.5 172,-263.5"/>
<text text-anchor="middle" x="239" y="-369.3" font-family="Times,serif" font-size="14.00" fill="#000000">Solver</text>
<polyline fill="none" stroke="#000000" points="160,-361.5 318,-361.5 "/>
<text text-anchor="start" x="168" y="-346.3" font-family="Times,serif" font-size="14.00" fill="#000000">id :integer</text>
<text text-anchor="start" x="168" y="-331.3" font-family="Times,serif" font-size="14.00" fill="#000000">name :varchar</text>
<text text-anchor="start" x="168" y="-316.3" font-family="Times,serif" font-size="14.00" fill="#000000">description :varchar</text>
<text text-anchor="start" x="168" y="-301.3" font-family="Times,serif" font-size="14.00" fill="#000000">phone_number :varchar</text>
<text text-anchor="start" x="168" y="-286.3" font-family="Times,serif" font-size="14.00" fill="#000000">user_id :integer</text>
<text text-anchor="start" x="168" y="-271.3" font-family="Times,serif" font-size="14.00" fill="#000000">administration_id :integer</text>
</g>
<!-- Administration&#45;&gt;Solver -->
<g id="edge2" class="edge">
<title>Administration&#45;&gt;Solver</title>
<path fill="none" stroke="#b480db" d="M180.5671,-414.3798C185.0849,-407.392 189.6501,-400.331 194.1321,-393.3984"/>
<ellipse fill="none" stroke="#b480db" cx="178.3105" cy="-417.8702" rx="4" ry="4"/>
<polygon fill="#b480db" stroke="#b480db" points="194.3258,-393.0988 203.5342,-387.1442 197.0405,-388.8999 199.7552,-384.701 199.7552,-384.701 199.7552,-384.701 197.0405,-388.8999 195.9763,-382.2578 194.3258,-393.0988 194.3258,-393.0988"/>
</g>
<!-- ApplicationRecord -->
<g id="node3" class="node">
<title>ApplicationRecord</title>
<ellipse fill="none" stroke="#000000" cx="309" cy="-670" rx="77.1866" ry="18"/>
<text text-anchor="middle" x="309" y="-666.3" font-family="Times,serif" font-size="14.00" fill="#000000">ApplicationRecord</text>
</g>
<!-- ApplicationRecord&#45;&gt;Administration -->
<g id="edge3" class="edge">
<title>ApplicationRecord&#45;&gt;Administration</title>
<path fill="none" stroke="#000000" d="M291.7062,-652.3643C270.2202,-630.4534 232.2963,-591.7795 198.7949,-557.6157"/>
</g>
<!-- Category -->
<g id="node4" class="node">
<title>Category</title>
<path fill="none" stroke="#000000" d="M235.5,-459C235.5,-459 306.5,-459 306.5,-459 312.5,-459 318.5,-465 318.5,-471 318.5,-471 318.5,-508 318.5,-508 318.5,-514 312.5,-520 306.5,-520 306.5,-520 235.5,-520 235.5,-520 229.5,-520 223.5,-514 223.5,-508 223.5,-508 223.5,-471 223.5,-471 223.5,-465 229.5,-459 235.5,-459"/>
<text text-anchor="middle" x="271" y="-504.8" font-family="Times,serif" font-size="14.00" fill="#000000">Category</text>
<polyline fill="none" stroke="#000000" points="223.5,-497 318.5,-497 "/>
<text text-anchor="start" x="231.5" y="-481.8" font-family="Times,serif" font-size="14.00" fill="#000000">id :integer</text>
<text text-anchor="start" x="231.5" y="-466.8" font-family="Times,serif" font-size="14.00" fill="#000000">name :varchar</text>
</g>
<!-- ApplicationRecord&#45;&gt;Category -->
<g id="edge4" class="edge">
<title>ApplicationRecord&#45;&gt;Category</title>
<path fill="none" stroke="#000000" d="M305.1472,-651.6994C298.6376,-620.7785 285.3963,-557.8826 277.4511,-520.1425"/>
</g>
<!-- ApplicationRecord&#45;&gt;Solver -->
<g id="edge6" class="edge">
<title>ApplicationRecord&#45;&gt;Solver</title>
<path fill="none" stroke="#000000" d="M315.3763,-652.0271C329.2393,-609.9561 358.4505,-502.4746 327,-421 322.0052,-408.0606 314.3942,-395.7801 305.6975,-384.5793"/>
</g>
<!-- User -->
<g id="node7" class="node">
<title>User</title>
<path fill="none" stroke="#000000" d="M387,-444C387,-444 539,-444 539,-444 545,-444 551,-450 551,-456 551,-456 551,-523 551,-523 551,-529 545,-535 539,-535 539,-535 387,-535 387,-535 381,-535 375,-529 375,-523 375,-523 375,-456 375,-456 375,-450 381,-444 387,-444"/>
<text text-anchor="middle" x="463" y="-519.8" font-family="Times,serif" font-size="14.00" fill="#000000">User</text>
<polyline fill="none" stroke="#000000" points="375,-512 551,-512 "/>
<text text-anchor="start" x="383" y="-496.8" font-family="Times,serif" font-size="14.00" fill="#000000">id :integer</text>
<text text-anchor="start" x="383" y="-481.8" font-family="Times,serif" font-size="14.00" fill="#000000">role :integer</text>
<text text-anchor="start" x="383" y="-466.8" font-family="Times,serif" font-size="14.00" fill="#000000">email :varchar</text>
<text text-anchor="start" x="383" y="-451.8" font-family="Times,serif" font-size="14.00" fill="#000000">encrypted_password :varchar</text>
</g>
<!-- ApplicationRecord&#45;&gt;User -->
<g id="edge7" class="edge">
<title>ApplicationRecord&#45;&gt;User</title>
<path fill="none" stroke="#000000" d="M324.3291,-652.0331C347.3811,-625.0144 391.7147,-573.0519 424.0678,-535.1316"/>
</g>
<!-- Solver&#45;&gt;Scream -->
<g id="edge5" class="edge">
<title>Solver&#45;&gt;Scream</title>
<path fill="none" stroke="#73bba6" d="M221.409,-255.4277C219.8596,-249.3879 218.263,-243.1639 216.6433,-236.8504"/>
<ellipse fill="none" stroke="#73bba6" cx="222.4594" cy="-259.5225" rx="4" ry="4"/>
<polygon fill="#73bba6" stroke="#73bba6" points="216.5677,-236.5553 218.4416,-225.7507 215.3252,-231.7121 214.0828,-226.8689 214.0828,-226.8689 214.0828,-226.8689 215.3252,-231.7121 209.7239,-227.9871 216.5677,-236.5553 216.5677,-236.5553"/>
</g>
<!-- ActiveStorage::Current -->
<g id="node8" class="node">
<title>ActiveStorage::Current</title>
<polygon fill="none" stroke="#000000" points="569.5,-466.5 569.5,-512.5 712.5,-512.5 712.5,-466.5 569.5,-466.5"/>
<text text-anchor="middle" x="641" y="-497.3" font-family="Times,serif" font-size="14.00" fill="#000000">ActiveStorage::Current</text>
<polyline fill="none" stroke="#000000" points="569.5,-489.5 712.5,-489.5 "/>
<text text-anchor="middle" x="641" y="-474.3" font-family="Times,serif" font-size="14.00" fill="#000000"> </text>
</g>
<!-- ActiveStorage::Blob::Identifiable -->
<g id="node9" class="node">
<title>ActiveStorage::Blob::Identifiable</title>
<polygon fill="none" stroke="#000000" stroke-dasharray="1,5" points="984.5,-688 787.5,-688 787.5,-652 984.5,-652 984.5,-688"/>
<text text-anchor="middle" x="886" y="-666.3" font-family="Times,serif" font-size="14.00" fill="#000000">ActiveStorage::Blob::Identifiable</text>
</g>
<!-- ActiveStorage::Blob::Representable -->
<g id="node10" class="node">
<title>ActiveStorage::Blob::Representable</title>
<polygon fill="none" stroke="#000000" stroke-dasharray="1,5" points="1215,-688 1003,-688 1003,-652 1215,-652 1215,-688"/>
<text text-anchor="middle" x="1109" y="-666.3" font-family="Times,serif" font-size="14.00" fill="#000000">ActiveStorage::Blob::Representable</text>
</g>
<!-- ActiveStorage::Blob::Analyzable -->
<g id="node11" class="node">
<title>ActiveStorage::Blob::Analyzable</title>
<polygon fill="none" stroke="#000000" stroke-dasharray="1,5" points="1430.5,-688 1233.5,-688 1233.5,-652 1430.5,-652 1430.5,-688"/>
<text text-anchor="middle" x="1332" y="-666.3" font-family="Times,serif" font-size="14.00" fill="#000000">ActiveStorage::Blob::Analyzable</text>
</g>
<!-- ActiveStorage::Attachment -->
<g id="node12" class="node">
<title>ActiveStorage::Attachment</title>
<path fill="none" stroke="#000000" d="M1460.5,-609.5C1460.5,-609.5 1601.5,-609.5 1601.5,-609.5 1607.5,-609.5 1613.5,-615.5 1613.5,-621.5 1613.5,-621.5 1613.5,-718.5 1613.5,-718.5 1613.5,-724.5 1607.5,-730.5 1601.5,-730.5 1601.5,-730.5 1460.5,-730.5 1460.5,-730.5 1454.5,-730.5 1448.5,-724.5 1448.5,-718.5 1448.5,-718.5 1448.5,-621.5 1448.5,-621.5 1448.5,-615.5 1454.5,-609.5 1460.5,-609.5"/>
<text text-anchor="middle" x="1531" y="-715.3" font-family="Times,serif" font-size="14.00" fill="#000000">ActiveStorage::Attachment</text>
<polyline fill="none" stroke="#000000" points="1448.5,-707.5 1613.5,-707.5 "/>
<text text-anchor="start" x="1456.5" y="-692.3" font-family="Times,serif" font-size="14.00" fill="#000000">id :integer</text>
<text text-anchor="start" x="1456.5" y="-677.3" font-family="Times,serif" font-size="14.00" fill="#000000">name :varchar</text>
<text text-anchor="start" x="1456.5" y="-662.3" font-family="Times,serif" font-size="14.00" fill="#000000">record_type :varchar</text>
<text text-anchor="start" x="1456.5" y="-647.3" font-family="Times,serif" font-size="14.00" fill="#000000">record_id :integer</text>
<text text-anchor="start" x="1456.5" y="-632.3" font-family="Times,serif" font-size="14.00" fill="#000000">blob_id :integer</text>
<text text-anchor="start" x="1456.5" y="-617.3" font-family="Times,serif" font-size="14.00" fill="#000000">created_at :datetime</text>
</g>
<!-- ActiveStorage::Variation -->
<g id="node13" class="node">
<title>ActiveStorage::Variation</title>
<polygon fill="none" stroke="#000000" points="1632,-647 1632,-693 1784,-693 1784,-647 1632,-647"/>
<text text-anchor="middle" x="1708" y="-677.8" font-family="Times,serif" font-size="14.00" fill="#000000">ActiveStorage::Variation</text>
<polyline fill="none" stroke="#000000" points="1632,-670 1784,-670 "/>
<text text-anchor="middle" x="1708" y="-654.8" font-family="Times,serif" font-size="14.00" fill="#000000"> </text>
</g>
<!-- ActiveStorage::Blob -->
<g id="node14" class="node">
<title>ActiveStorage::Blob</title>
<path fill="none" stroke="#000000" d="M1814,-594.5C1814,-594.5 1924,-594.5 1924,-594.5 1930,-594.5 1936,-600.5 1936,-606.5 1936,-606.5 1936,-733.5 1936,-733.5 1936,-739.5 1930,-745.5 1924,-745.5 1924,-745.5 1814,-745.5 1814,-745.5 1808,-745.5 1802,-739.5 1802,-733.5 1802,-733.5 1802,-606.5 1802,-606.5 1802,-600.5 1808,-594.5 1814,-594.5"/>
<text text-anchor="middle" x="1869" y="-730.3" font-family="Times,serif" font-size="14.00" fill="#000000">ActiveStorage::Blob</text>
<polyline fill="none" stroke="#000000" points="1802,-722.5 1936,-722.5 "/>
<text text-anchor="start" x="1810" y="-707.3" font-family="Times,serif" font-size="14.00" fill="#000000">id :integer</text>
<text text-anchor="start" x="1810" y="-692.3" font-family="Times,serif" font-size="14.00" fill="#000000">key :varchar</text>
<text text-anchor="start" x="1810" y="-677.3" font-family="Times,serif" font-size="14.00" fill="#000000">filename :varchar</text>
<text text-anchor="start" x="1810" y="-662.3" font-family="Times,serif" font-size="14.00" fill="#000000">content_type :varchar</text>
<text text-anchor="start" x="1810" y="-647.3" font-family="Times,serif" font-size="14.00" fill="#000000">metadata :text</text>
<text text-anchor="start" x="1810" y="-632.3" font-family="Times,serif" font-size="14.00" fill="#000000">byte_size :bigint</text>
<text text-anchor="start" x="1810" y="-617.3" font-family="Times,serif" font-size="14.00" fill="#000000">checksum :varchar</text>
<text text-anchor="start" x="1810" y="-602.3" font-family="Times,serif" font-size="14.00" fill="#000000">created_at :datetime</text>
</g>
<!-- ActiveStorage::Preview -->
<g id="node15" class="node">
<title>ActiveStorage::Preview</title>
<polygon fill="none" stroke="#000000" points="1954,-647 1954,-693 2100,-693 2100,-647 1954,-647"/>
<text text-anchor="middle" x="2027" y="-677.8" font-family="Times,serif" font-size="14.00" fill="#000000">ActiveStorage::Preview</text>
<polyline fill="none" stroke="#000000" points="1954,-670 2100,-670 "/>
<text text-anchor="middle" x="2027" y="-654.8" font-family="Times,serif" font-size="14.00" fill="#000000"> </text>
</g>
<!-- ActiveStorage::Filename::Parameters -->
<g id="node16" class="node">
<title>ActiveStorage::Filename::Parameters</title>
<polygon fill="none" stroke="#000000" points="2118.5,-647 2118.5,-693 2339.5,-693 2339.5,-647 2118.5,-647"/>
<text text-anchor="middle" x="2229" y="-677.8" font-family="Times,serif" font-size="14.00" fill="#000000">ActiveStorage::Filename::Parameters</text>
<polyline fill="none" stroke="#000000" points="2118.5,-670 2339.5,-670 "/>
<text text-anchor="middle" x="2229" y="-654.8" font-family="Times,serif" font-size="14.00" fill="#000000"> </text>
</g>
<!-- ActiveStorage::Variant -->
<g id="node17" class="node">
<title>ActiveStorage::Variant</title>
<polygon fill="none" stroke="#000000" points="2358,-647 2358,-693 2500,-693 2500,-647 2358,-647"/>
<text text-anchor="middle" x="2429" y="-677.8" font-family="Times,serif" font-size="14.00" fill="#000000">ActiveStorage::Variant</text>
<polyline fill="none" stroke="#000000" points="2358,-670 2500,-670 "/>
<text text-anchor="middle" x="2429" y="-654.8" font-family="Times,serif" font-size="14.00" fill="#000000"> </text>
</g>
<!-- ActiveStorage::Filename -->
<g id="node18" class="node">
<title>ActiveStorage::Filename</title>
<polygon fill="none" stroke="#000000" points="2518,-647 2518,-693 2670,-693 2670,-647 2518,-647"/>
<text text-anchor="middle" x="2594" y="-677.8" font-family="Times,serif" font-size="14.00" fill="#000000">ActiveStorage::Filename</text>
<polyline fill="none" stroke="#000000" points="2518,-670 2670,-670 "/>
<text text-anchor="middle" x="2594" y="-654.8" font-family="Times,serif" font-size="14.00" fill="#000000"> </text>
</g>
<!-- ActiveSupport::CurrentAttributes -->
<g id="node19" class="node">
<title>ActiveSupport::CurrentAttributes</title>
<ellipse fill="none" stroke="#000000" cx="641" cy="-670" rx="128.8774" ry="18"/>
<text text-anchor="middle" x="641" y="-666.3" font-family="Times,serif" font-size="14.00" fill="#000000">ActiveSupport::CurrentAttributes</text>
</g>
<!-- ActiveSupport::CurrentAttributes&#45;&gt;ActiveStorage::Current -->
<g id="edge8" class="edge">
<title>ActiveSupport::CurrentAttributes&#45;&gt;ActiveStorage::Current</title>
<path fill="none" stroke="#000000" d="M641,-651.6994C641,-618.6275 641,-548.9772 641,-512.6508"/>
</g>
</g>
</svg>
